<!DOCTYPE svg PUBLIC "-//W3C//DTD SVG 1.1//EN" "http://www.w3.org/Graphics/SVG/1.1/DTD/svg11.dtd">
<!-- Uploaded to: SVG Repo, www.svgrepo.com, Transformed by: SVG Repo Mixer Tools -->
<svg width="800px" height="800px" viewBox="0 0 1024 1024" xmlns="http://www.w3.org/2000/svg" fill="#000000">
<g id="SVGRepo_bgCarrier" stroke-width="0"/>
<g id="SVGRepo_tracerCarrier" stroke-linecap="round" stroke-linejoin="round"/>
<g id="SVGRepo_iconCarrier">
<path fill="#ffffff" d="M359.168 768H160a32 32 0 0 1-32-32V192H64a32 32 0 0 1 0-64h896a32 32 0 1 1 0 64h-64v544a32 32 0 0 1-32 32H665.216l110.848 192h-73.856L591.36 768H433.024L322.176 960H248.32l110.848-192zM832 192H192v512h640V192zM342.656 534.656a32 32 0 1 1-45.312-45.312L444.992 341.76l125.44 94.08L679.04 300.032a32 32 0 1 1 49.92 39.936L581.632 524.224 451.008 426.24 342.656 534.592z"/>
</g>
</svg>