<!DOCTYPE svg PUBLIC "-//W3C//DTD SVG 1.1//EN" "http://www.w3.org/Graphics/SVG/1.1/DTD/svg11.dtd">
<!-- Uploaded to: SVG Repo, www.svgrepo.com, Transformed by: SVG Repo Mixer Tools -->
<svg width="800px" height="800px" viewBox="-1.92 -1.92 35.84 35.84" version="1.1" xmlns="http://www.w3.org/2000/svg" xmlns:xlink="http://www.w3.org/1999/xlink" fill="#ffffff" stroke="#ffffff" stroke-width="0.9279999999999999">
<g id="SVGRepo_bgCarrier" stroke-width="0"/>
<g id="SVGRepo_tracerCarrier" stroke-linecap="round" stroke-linejoin="round"/>
<g id="SVGRepo_iconCarrier"> <g id="icomoon-ignore"> </g> <path d="M20.462 10.824l-9.265 9.196 0.753 0.756 9.265-9.196z" fill="#ffffff"> </path> <path d="M6.937 21.864c-3.234 0-5.864-2.631-5.864-5.864s2.631-5.864 5.864-5.864c1.566 0 2.987 0.621 4.040 1.624l0.001-0.006 0.054 0.047 2.076 2.066h-1.905v1.066h3.732v-3.732h-1.066v1.918l-2.084-2.074-0.005 0.005c-1.251-1.224-2.959-1.982-4.842-1.982-3.821 0-6.931 3.109-6.931 6.931s3.109 6.931 6.931 6.931c1.971 0 3.747-0.831 5.011-2.156l-0.753-0.754c-1.070 1.132-2.581 1.844-4.258 1.844z" fill="#ffffff"> </path> <path d="M25.063 9.069c-1.765 0-3.373 0.668-4.597 1.759l0.753 0.753c1.030-0.898 2.373-1.446 3.844-1.446 3.234 0 5.864 2.631 5.864 5.864s-2.631 5.864-5.864 5.864c-1.56 0-2.976-0.616-4.028-1.613l-0.002 0.010-3.531-3.518-0.757 0.751 3.535 3.522 0.006-0.006c1.245 1.187 2.925 1.921 4.776 1.921 3.821 0 6.931-3.109 6.931-6.931s-3.109-6.931-6.931-6.931z" fill="#ffffff"> </path> </g>
</svg>